<svg width="34" height="32" viewBox="0 0 34 32" fill="none" xmlns="http://www.w3.org/2000/svg">
<g clip-path="url(#clip0_46_38)">
<path d="M31.1667 9.19913H21.25V6.5708H31.1667V9.19913ZM33.6118 22.3408C32.9857 24.0452 30.7374 26.2832 26.3854 26.2832C22.0306 26.2832 18.5031 24.0111 18.5031 18.8254C18.5031 13.687 21.7968 11.0455 26.2466 11.0455C30.6128 11.0455 33.2789 13.3874 33.8612 16.862C33.9717 17.527 34.0156 18.4232 33.9958 19.6743H22.6242C22.8083 23.8941 27.5584 24.0268 29.1238 22.3408H33.6118ZM22.7233 17.0841H29.7571C29.6083 15.0511 28.1478 14.168 26.248 14.168C24.1712 14.168 23.0223 15.1773 22.7233 17.0841ZM9.16017 26.2675H0V6.5984H9.85008C17.6077 6.70485 17.7551 13.7527 13.7034 15.674C18.6065 17.3299 18.7708 26.2675 9.16017 26.2675ZM4.25 14.4558H9.32733C12.8803 14.4558 13.4442 10.5133 8.88533 10.5133H4.25V14.4558ZM9.05392 18.3983H4.25V22.3618H8.98308C13.311 22.3618 13.0461 18.3983 9.05392 18.3983Z" fill="black"/>
</g>
<defs>
<clipPath id="clip0_46_38">
<rect width="34" height="31.5399" fill="white"/>
</clipPath>
</defs>
</svg>
