<svg width="30" height="30" viewBox="0 0 30 30" fill="none" xmlns="http://www.w3.org/2000/svg">
<path d="M22.1875 3.75C23.2649 3.75 24.2983 4.17801 25.0601 4.93988C25.822 5.70175 26.25 6.73506 26.25 7.8125V22.1875C26.25 23.2649 25.822 24.2983 25.0601 25.0601C24.2983 25.822 23.2649 26.25 22.1875 26.25H7.8125C6.73506 26.25 5.70175 25.822 4.93988 25.0601C4.17801 24.2983 3.75 23.2649 3.75 22.1875V7.8125C3.75 6.73506 4.17801 5.70175 4.93988 4.93988C5.70175 4.17801 6.73506 3.75 7.8125 3.75H22.1875ZM22.1875 5.625H7.8125C7.23234 5.625 6.67594 5.85547 6.2657 6.2657C5.85547 6.67594 5.625 7.23234 5.625 7.8125V16.25H11.25C11.4765 16.25 11.6954 16.3321 11.8662 16.481C12.0369 16.6299 12.1479 16.8356 12.1788 17.06L12.1875 17.1875C12.1862 17.9176 12.4688 18.6197 12.9757 19.1452C13.4826 19.6707 14.174 19.9785 14.9037 20.0035C15.6334 20.0285 16.3442 19.7688 16.8859 19.2792C17.4276 18.7896 17.7576 18.1085 17.8062 17.38L17.8125 17.1875C17.8125 16.9389 17.9113 16.7004 18.0871 16.5246C18.2629 16.3488 18.5014 16.25 18.75 16.25H24.375V7.8125C24.375 7.26331 24.1683 6.73424 23.7962 6.33036C23.424 5.92649 22.9136 5.67738 22.3662 5.6325L22.1875 5.625ZM8.4375 11.875H21.5625C21.8 11.8751 22.0287 11.9653 22.2022 12.1275C22.3758 12.2896 22.4813 12.5116 22.4975 12.7486C22.5137 12.9856 22.4394 13.2199 22.2895 13.4041C22.1396 13.5884 21.9253 13.7089 21.69 13.7413L21.5625 13.75H8.4375C8.19997 13.7499 7.97132 13.6597 7.79776 13.4975C7.6242 13.3354 7.51866 13.1134 7.50247 12.8764C7.48628 12.6394 7.56064 12.4051 7.71054 12.2209C7.86044 12.0366 8.07469 11.9161 8.31 11.8837L8.4375 11.875H21.5625H8.4375ZM8.4375 8.125H21.5625C21.8 8.12507 22.0287 8.21531 22.2022 8.37747C22.3758 8.53963 22.4813 8.76162 22.4975 8.9986C22.5137 9.23558 22.4394 9.46987 22.2895 9.65412C22.1396 9.83838 21.9253 9.95887 21.69 9.99125L21.5625 10H8.4375C8.19997 9.99993 7.97132 9.90969 7.79776 9.74753C7.6242 9.58537 7.51866 9.36338 7.50247 9.1264C7.48628 8.88942 7.56064 8.65513 7.71054 8.47088C7.86044 8.28662 8.07469 8.16613 8.31 8.13375L8.4375 8.125H21.5625H8.4375Z" fill="white"/>
</svg>
