<svg width="64" height="64" viewBox="0 0 64 64" fill="none" xmlns="http://www.w3.org/2000/svg">
<path d="M57.8933 19.4399C57.6454 19.19 57.3505 18.9916 57.0255 18.8562C56.7006 18.7208 56.352 18.6511 56 18.6511C55.648 18.6511 55.2994 18.7208 54.9745 18.8562C54.6495 18.9916 54.3546 19.19 54.1067 19.4399L37.3333 36.2399L25.8933 24.7733C25.6454 24.5233 25.3505 24.3249 25.0255 24.1895C24.7006 24.0542 24.352 23.9845 24 23.9845C23.648 23.9845 23.2994 24.0542 22.9745 24.1895C22.6495 24.3249 22.3546 24.5233 22.1067 24.7733L6.10667 40.7733C5.85672 41.0212 5.65834 41.3161 5.52296 41.641C5.38757 41.966 5.31787 42.3146 5.31787 42.6666C5.31787 43.0186 5.38757 43.3672 5.52296 43.6921C5.65834 44.0171 5.85672 44.312 6.10667 44.5599C6.35457 44.8099 6.6495 45.0082 6.97446 45.1436C7.29942 45.279 7.64797 45.3487 8 45.3487C8.35203 45.3487 8.70058 45.279 9.02554 45.1436C9.3505 45.0082 9.64543 44.8099 9.89333 44.5599L24 30.4266L35.44 41.8933C35.6879 42.1432 35.9828 42.3416 36.3078 42.477C36.6328 42.6123 36.9813 42.682 37.3333 42.682C37.6854 42.682 38.0339 42.6123 38.3589 42.477C38.6838 42.3416 38.9788 42.1432 39.2267 41.8933L57.8933 23.2266C58.1433 22.9787 58.3417 22.6837 58.477 22.3588C58.6124 22.0338 58.6821 21.6853 58.6821 21.3333C58.6821 20.9812 58.6124 20.6327 58.477 20.3077C58.3417 19.9828 58.1433 19.6878 57.8933 19.4399Z" fill="white"/>
</svg>
