<svg width="64" height="64" viewBox="0 0 64 64" fill="none" xmlns="http://www.w3.org/2000/svg">
<path d="M44.7687 20.6126C45.9562 19.4313 45.9562 17.5063 44.7687 16.3251L40.4 11.9563L40.4062 11.9626C39.25 10.8063 37.2625 8.81882 34.45 6.01257C33.125 4.71882 30.9812 4.73132 29.6687 6.04382L5.0562 30.6376C4.7413 30.9503 4.49138 31.3223 4.32084 31.732C4.1503 32.1418 4.0625 32.5812 4.0625 33.0251C4.0625 33.4689 4.1503 33.9083 4.32084 34.3181C4.49138 34.7278 4.7413 35.0998 5.0562 35.4126L29.6625 60.0001C30.2969 60.6334 31.1567 60.9891 32.0531 60.9891C32.9495 60.9891 33.8093 60.6334 34.4437 60.0001L44.7625 49.6876C45.95 48.5063 45.95 46.5813 44.7625 45.4001C44.1921 44.8325 43.4202 44.5139 42.6156 44.5139C41.811 44.5139 41.0391 44.8325 40.4687 45.4001L32.6562 53.2251C32.3312 53.5501 31.825 53.5501 31.5 53.2251L11.8437 33.5876C11.5187 33.2626 11.5187 32.7563 11.8437 32.4313L31.4937 12.7938C31.5187 12.7688 31.55 12.7501 31.575 12.7251C31.9 12.4688 32.35 12.4938 32.65 12.7938L40.475 20.6126C41.6625 21.8001 43.5875 21.8001 44.7687 20.6126ZM25.5375 33.1501C25.5375 34.9104 26.2374 36.5987 27.4834 37.8435C28.7293 39.0883 30.4192 39.7876 32.1812 39.7876C33.9432 39.7876 35.6331 39.0883 36.8791 37.8435C38.125 36.5987 38.825 34.9104 38.825 33.1501C38.825 31.3897 38.125 29.7014 36.8791 28.4566C35.6331 27.2119 33.9432 26.5126 32.1812 26.5126C30.4192 26.5126 28.7293 27.2119 27.4834 28.4566C26.2374 29.7014 25.5375 31.3897 25.5375 33.1501ZM59.05 30.7376L51.3687 23.0938C50.1812 21.9126 48.2562 21.9126 47.075 23.1001C46.7926 23.3811 46.5686 23.7152 46.4158 24.0831C46.2629 24.451 46.1842 24.8454 46.1842 25.2438C46.1842 25.6422 46.2629 26.0367 46.4158 26.4045C46.5686 26.7724 46.7926 27.1065 47.075 27.3876L52.2625 32.5688C52.5875 32.8938 52.5875 33.4001 52.2625 33.7251L47.15 38.8313C46.8676 39.1124 46.6436 39.4465 46.4908 39.8143C46.3379 40.1822 46.2592 40.5767 46.2592 40.9751C46.2592 41.3734 46.3379 41.7679 46.4908 42.1358C46.6436 42.5037 46.8676 42.8377 47.15 43.1188C47.7203 43.6863 48.4922 44.0049 49.2968 44.0049C50.1015 44.0049 50.8733 43.6863 51.4437 43.1188L59.0562 35.5126C59.37 35.199 59.6189 34.8266 59.7884 34.4167C59.958 34.0067 60.045 33.5674 60.0444 33.1238C60.0439 32.6802 59.9557 32.241 59.7851 31.8315C59.6144 31.4221 59.3646 31.0503 59.05 30.7376Z" fill="white"/>
</svg>
