<svg width="64" height="64" viewBox="0 0 64 64" fill="none" xmlns="http://www.w3.org/2000/svg">
<path d="M19.1998 33.5999C19.1998 33.1756 19.3684 32.7686 19.6684 32.4685C19.9685 32.1685 20.3755 31.9999 20.7998 31.9999C21.2242 31.9999 21.6311 32.1685 21.9312 32.4685C22.2312 32.7686 22.3998 33.1756 22.3998 33.5999C22.3998 34.0242 22.2312 34.4312 21.9312 34.7313C21.6311 35.0313 21.2242 35.1999 20.7998 35.1999C20.3755 35.1999 19.9685 35.0313 19.6684 34.7313C19.3684 34.4312 19.1998 34.0242 19.1998 33.5999ZM20.7998 38.3999C20.3755 38.3999 19.9685 38.5685 19.6684 38.8685C19.3684 39.1686 19.1998 39.5756 19.1998 39.9999C19.1998 40.4242 19.3684 40.8312 19.6684 41.1313C19.9685 41.4313 20.3755 41.5999 20.7998 41.5999C21.2242 41.5999 21.6311 41.4313 21.9312 41.1313C22.2312 40.8312 22.3998 40.4242 22.3998 39.9999C22.3998 39.5756 22.2312 39.1686 21.9312 38.8685C21.6311 38.5685 21.2242 38.3999 20.7998 38.3999ZM19.1998 46.3999C19.1998 45.9756 19.3684 45.5686 19.6684 45.2685C19.9685 44.9685 20.3755 44.7999 20.7998 44.7999C21.2242 44.7999 21.6311 44.9685 21.9312 45.2685C22.2312 45.5686 22.3998 45.9756 22.3998 46.3999C22.3998 46.8242 22.2312 47.2312 21.9312 47.5313C21.6311 47.8313 21.2242 47.9999 20.7998 47.9999C20.3755 47.9999 19.9685 47.8313 19.6684 47.5313C19.3684 47.2312 19.1998 46.8242 19.1998 46.3999ZM27.1998 31.9999C26.7755 31.9999 26.3685 32.1685 26.0684 32.4685C25.7684 32.7686 25.5998 33.1756 25.5998 33.5999C25.5998 34.0242 25.7684 34.4312 26.0684 34.7313C26.3685 35.0313 26.7755 35.1999 27.1998 35.1999H43.1998C43.6242 35.1999 44.0311 35.0313 44.3312 34.7313C44.6312 34.4312 44.7998 34.0242 44.7998 33.5999C44.7998 33.1756 44.6312 32.7686 44.3312 32.4685C44.0311 32.1685 43.6242 31.9999 43.1998 31.9999H27.1998ZM25.5998 39.9999C25.5998 39.5756 25.7684 39.1686 26.0684 38.8685C26.3685 38.5685 26.7755 38.3999 27.1998 38.3999H43.1998C43.6242 38.3999 44.0311 38.5685 44.3312 38.8685C44.6312 39.1686 44.7998 39.5756 44.7998 39.9999C44.7998 40.4242 44.6312 40.8312 44.3312 41.1313C44.0311 41.4313 43.6242 41.5999 43.1998 41.5999H27.1998C26.7755 41.5999 26.3685 41.4313 26.0684 41.1313C25.7684 40.8312 25.5998 40.4242 25.5998 39.9999ZM27.1998 44.7999C26.7755 44.7999 26.3685 44.9685 26.0684 45.2685C25.7684 45.5686 25.5998 45.9756 25.5998 46.3999C25.5998 46.8242 25.7684 47.2312 26.0684 47.5313C26.3685 47.8313 26.7755 47.9999 27.1998 47.9999H43.1998C43.6242 47.9999 44.0311 47.8313 44.3312 47.5313C44.6312 47.2312 44.7998 46.8242 44.7998 46.3999C44.7998 45.9756 44.6312 45.5686 44.3312 45.2685C44.0311 44.9685 43.6242 44.7999 43.1998 44.7999H27.1998ZM19.1998 6.3999C17.5024 6.3999 15.8746 7.07419 14.6743 8.27442C13.4741 9.47465 12.7998 11.1025 12.7998 12.7999V51.1999C12.7998 52.8973 13.4741 54.5252 14.6743 55.7254C15.8746 56.9256 17.5024 57.5999 19.1998 57.5999H44.7998C46.4972 57.5999 48.1251 56.9256 49.3253 55.7254C50.5255 54.5252 51.1998 52.8973 51.1998 51.1999V23.7247C51.1987 22.4521 50.6922 21.232 49.7918 20.3327L37.267 7.8047C36.3672 6.90544 35.1472 6.40017 33.875 6.3999H19.1998ZM15.9998 12.7999C15.9998 11.9512 16.3369 11.1373 16.9371 10.5372C17.5372 9.93704 18.3511 9.5999 19.1998 9.5999H31.9998V20.7999C31.9998 22.0729 32.5055 23.2938 33.4057 24.194C34.3059 25.0942 35.5268 25.5999 36.7998 25.5999H47.9998V51.1999C47.9998 52.0486 47.6627 52.8625 47.0625 53.4626C46.4624 54.0628 45.6485 54.3999 44.7998 54.3999H19.1998C18.3511 54.3999 17.5372 54.0628 16.9371 53.4626C16.3369 52.8625 15.9998 52.0486 15.9998 51.1999V12.7999ZM47.3374 22.3999H36.7998C36.3755 22.3999 35.9685 22.2313 35.6684 21.9313C35.3684 21.6312 35.1998 21.2242 35.1998 20.7999V10.2623L47.3374 22.3999Z" fill="white"/>
</svg>
