<svg width="64" height="64" viewBox="0 0 64 64" fill="none" xmlns="http://www.w3.org/2000/svg">
<path d="M42 0L40.688 1.438C37.75 4.672 35.328 6.118 33.312 7.064C31.296 8.008 29.602 8.29 27.938 9.564C26.164 10.924 23.586 13.532 22.5 18.188C20.172 18.696 18.468 19.588 17.124 20.75C15.796 21.898 14.796 23.204 13.564 24.626C13.554 24.642 13.57 24.672 13.564 24.688C11.796 26.72 10.25 28.908 7.25 30.064L6 30.564V51.938H44.126C46.312 51.82 47.828 50.306 48.75 48.812C49.67 47.32 50.18 45.704 50.438 44.376C51.102 40.992 52.312 31.25 52.312 31.25L52.376 31.064V30.876C52.312 29.524 51.756 28.376 51.062 27.312L53.312 20.626L56.876 15.25L57.876 13.812L56.562 12.626L43.438 1.25L42 0ZM42.126 5.5L52.562 14.564L49.812 18.624L49.626 18.814L49.562 19.126L47.75 24.5C46.804 24.11 45.83 23.836 44.75 23.876H44.624L32 23.938H30V31.688C29.72 33.868 28.508 34.712 27 35.314C26.5 35.516 26.438 35.406 26 35.5V23.878C25.672 16.464 28.312 14.33 30.376 12.752C30.946 12.314 32.616 11.808 35 10.69C36.992 9.752 39.468 8.072 42.126 5.502V5.5ZM22.126 22.688C22.118 23.142 21.976 23.462 22 23.938V39.938H24C24 39.938 26.14 39.914 28.438 39C30.734 38.086 33.508 35.946 34 32.188V27.938L44.75 27.876H44.812C45.69 27.8279 46.5512 28.1297 47.2072 28.7152C47.8631 29.3007 48.2604 30.1222 48.312 31C48.304 31.032 48.212 31.774 48.188 31.938H40V35.938H47.688C47.476 37.484 47.282 38.454 47.062 39.938H40V43.938H46.438C46.2017 44.9056 45.8221 45.8325 45.312 46.688C44.766 47.578 44.296 47.914 43.876 47.938H10V33C13.242 31.28 15.258 28.806 16.562 27.314C17.914 25.766 18.842 24.594 19.75 23.814C20.344 23.306 21.274 23.016 22.126 22.688Z" fill="white"/>
</svg>
