<svg width="34" height="32" viewBox="0 0 34 32" fill="none" xmlns="http://www.w3.org/2000/svg">
<g clip-path="url(#clip0_46_36)">
<path fill-rule="evenodd" clip-rule="evenodd" d="M0 15.858C0 23.6983 6.13842 30.2179 14.1667 31.5399V20.1501H9.91667V15.77H14.1667V12.2651C14.1667 8.3226 16.9051 6.1332 20.7782 6.1332C22.0051 6.1332 23.3282 6.30798 24.5551 6.48277V10.5133H22.3833C20.3051 10.5133 19.8333 11.4766 19.8333 12.704V15.77H24.3667L23.6116 20.1501H19.8333V31.5399C27.8616 30.2179 34 23.6996 34 15.858C34 7.13591 26.35 0 17 0C7.65 0 0 7.13591 0 15.858Z" fill="black"/>
</g>
<defs>
<clipPath id="clip0_46_36">
<rect width="34" height="31.5399" fill="white"/>
</clipPath>
</defs>
</svg>
