<svg width="34" height="34" viewBox="0 0 34 34" fill="none" xmlns="http://www.w3.org/2000/svg">
<path fill-rule="evenodd" clip-rule="evenodd" d="M10.5753 1.51025C12.237 1.43375 12.7668 1.41675 16.9998 1.41675C21.2328 1.41675 21.7627 1.43516 23.423 1.51025C25.0833 1.58533 26.2167 1.85025 27.2083 2.23416C28.2468 2.62658 29.1888 3.24 29.968 4.03333C30.7613 4.81108 31.3733 5.75175 31.7643 6.79158C32.1497 7.78325 32.4132 8.91658 32.4897 10.5741C32.5662 12.2387 32.5832 12.7685 32.5832 17.0001C32.5832 21.2331 32.5648 21.7629 32.4897 23.4247C32.4146 25.0822 32.1497 26.2155 31.7643 27.2072C31.3733 28.2471 30.7603 29.1894 29.968 29.9682C29.1888 30.7616 28.2468 31.3736 27.2083 31.7646C26.2167 32.1499 25.0833 32.4134 23.4258 32.4899C21.7627 32.5664 21.2328 32.5834 16.9998 32.5834C12.7668 32.5834 12.237 32.565 10.5753 32.4899C8.91775 32.4148 7.78442 32.1499 6.79275 31.7646C5.75281 31.3735 4.81058 30.7605 4.03167 29.9682C3.23888 29.19 2.62537 28.2483 2.23392 27.2086C1.85 26.2169 1.5865 25.0836 1.51 23.4261C1.4335 21.7615 1.4165 21.2317 1.4165 17.0001C1.4165 12.7671 1.43492 12.2372 1.51 10.5769C1.58509 8.91658 1.85 7.78325 2.23392 6.79158C2.62594 5.75186 3.23992 4.81011 4.03309 4.03191C4.81089 3.23929 5.75217 2.62579 6.79134 2.23416C7.783 1.85025 8.91634 1.58675 10.5738 1.51025H10.5753ZM23.2969 4.31525C21.6536 4.24016 21.1606 4.22458 16.9998 4.22458C12.8391 4.22458 12.3461 4.24016 10.7028 4.31525C9.18267 4.38466 8.35817 4.63825 7.8085 4.85216C7.08175 5.1355 6.56184 5.47125 6.01642 6.01666C5.4994 6.51965 5.10151 7.13198 4.85192 7.80875C4.638 8.35841 4.38442 9.18291 4.315 10.703C4.23992 12.3463 4.22434 12.8393 4.22434 17.0001C4.22434 21.1608 4.23992 21.6538 4.315 23.2972C4.38442 24.8172 4.638 25.6417 4.85192 26.1914C5.10125 26.8672 5.49934 27.4806 6.01642 27.9835C6.51934 28.5006 7.13275 28.8987 7.8085 29.148C8.35817 29.3619 9.18267 29.6155 10.7028 29.6849C12.3461 29.76 12.8377 29.7756 16.9998 29.7756C21.162 29.7756 21.6536 29.76 23.2969 29.6849C24.817 29.6155 25.6415 29.3619 26.1912 29.148C26.9179 28.8647 27.4378 28.5289 27.9833 27.9835C28.5003 27.4806 28.8984 26.8672 29.1478 26.1914C29.3617 25.6417 29.6153 24.8172 29.6847 23.2972C29.7598 21.6538 29.7753 21.1608 29.7753 17.0001C29.7753 12.8393 29.7598 12.3463 29.6847 10.703C29.6153 9.18291 29.3617 8.35841 29.1478 7.80875C28.8644 7.082 28.5287 6.56208 27.9833 6.01666C27.4802 5.49968 26.8679 5.1018 26.1912 4.85216C25.6415 4.63825 24.817 4.38466 23.2969 4.31525ZM15.0094 21.804C16.121 22.2667 17.3588 22.3292 18.5113 21.9807C19.6638 21.6322 20.6596 20.8944 21.3286 19.8933C21.9976 18.8921 22.2982 17.6898 22.1792 16.4916C22.0602 15.2935 21.5289 14.1738 20.6761 13.3238C20.1324 12.7805 19.4751 12.3645 18.7513 12.1057C18.0276 11.8469 17.2554 11.7518 16.4905 11.8273C15.7256 11.9027 14.987 12.1468 14.3277 12.542C13.6685 12.9372 13.1051 13.4736 12.678 14.1127C12.251 14.7518 11.9709 15.4776 11.8581 16.2379C11.7452 16.9981 11.8023 17.774 12.0253 18.5096C12.2482 19.2451 12.6315 19.9221 13.1475 20.4918C13.6635 21.0614 14.2994 21.5096 15.0094 21.804ZM11.336 11.3362C12.0798 10.5925 12.9628 10.0025 13.9346 9.59993C14.9064 9.19739 15.948 8.99021 16.9998 8.99021C18.0517 8.99021 19.0933 9.19739 20.0651 9.59993C21.0369 10.0025 21.9199 10.5925 22.6637 11.3362C23.4075 12.08 23.9975 12.963 24.4 13.9348C24.8025 14.9066 25.0097 15.9482 25.0097 17.0001C25.0097 18.052 24.8025 19.0935 24.4 20.0653C23.9975 21.0371 23.4075 21.9201 22.6637 22.6639C21.1615 24.1661 19.1242 25.01 16.9998 25.01C14.8755 25.01 12.8381 24.1661 11.336 22.6639C9.83386 21.1618 8.98997 19.1244 8.98997 17.0001C8.98997 14.8757 9.83386 12.8384 11.336 11.3362ZM26.7862 10.1831C26.9705 10.0092 27.118 9.80013 27.2201 9.56821C27.3222 9.33629 27.3767 9.08625 27.3803 8.8329C27.384 8.57954 27.3369 8.32802 27.2416 8.09323C27.1463 7.85843 27.0049 7.64514 26.8258 7.46597C26.6466 7.2868 26.4333 7.1454 26.1985 7.05015C25.9637 6.95489 25.7122 6.90771 25.4589 6.91141C25.2055 6.9151 24.9555 6.96959 24.7235 7.07165C24.4916 7.17371 24.2825 7.32127 24.1087 7.50558C23.7705 7.86404 23.5854 8.34017 23.5926 8.8329C23.5998 9.32563 23.7987 9.79616 24.1471 10.1446C24.4956 10.4931 24.9661 10.692 25.4589 10.6992C25.9516 10.7064 26.4277 10.5212 26.7862 10.1831Z" fill="black"/>
</svg>
