<svg width="40" height="40" viewBox="0 0 40 40" fill="none" xmlns="http://www.w3.org/2000/svg">
<path d="M32.4445 29.6889C29.55 29.6562 26.7437 28.6879 24.445 26.9285C22.1462 25.1692 20.4784 22.7133 19.6908 19.9278C18.9032 17.1422 19.0379 14.1766 20.075 11.474C21.112 8.77145 22.9957 6.47694 25.4445 4.93335C24.2072 4.61169 22.9342 4.44743 21.6557 4.44446C17.5301 4.44446 13.5734 6.08334 10.6562 9.00057C7.73898 11.9178 6.1001 15.8744 6.1001 20C6.1001 24.1256 7.73898 28.0822 10.6562 30.9995C13.5734 33.9167 17.5301 35.5556 21.6557 35.5556C23.9928 35.5535 26.2986 35.0179 28.3975 33.9897C30.4963 32.9614 32.3327 31.4677 33.7668 29.6222C33.3274 29.6669 32.8861 29.6891 32.4445 29.6889V29.6889Z" fill="white"/>
</svg>
