<svg width="24" height="24" viewBox="0 0 24 24" fill="none" xmlns="http://www.w3.org/2000/svg">
<path d="M12.0002 1.33337C9.8905 1.33337 7.82821 1.95896 6.07409 3.13103C4.31996 4.3031 2.95279 5.96901 2.14545 7.91808C1.33812 9.86716 1.12688 12.0119 1.53846 14.081C1.95003 16.1501 2.96594 18.0508 4.4577 19.5425C5.94946 21.0343 7.85007 22.0502 9.9192 22.4618C11.9883 22.8733 14.133 22.6621 16.0821 21.8548C18.0312 21.0474 19.6971 19.6802 20.8692 17.9261C22.0412 16.172 22.6668 14.1097 22.6668 12C22.6668 9.17106 21.543 6.45796 19.5426 4.45757C17.5423 2.45718 14.8291 1.33337 12.0002 1.33337ZM12.0002 21.3334C10.1542 21.3334 8.3497 20.786 6.81485 19.7604C5.27999 18.7349 4.08371 17.2772 3.37729 15.5718C2.67087 13.8663 2.48604 11.9897 2.84617 10.1792C3.2063 8.36871 4.09521 6.70567 5.4005 5.40038C6.70579 4.09509 8.36884 3.20617 10.1793 2.84604C11.9898 2.48592 13.8664 2.67075 15.5719 3.37717C17.2773 4.08358 18.735 5.27986 19.7606 6.81472C20.7861 8.34958 21.3335 10.1541 21.3335 12C21.3335 14.4754 20.3502 16.8494 18.5998 18.5997C16.8495 20.35 14.4755 21.3334 12.0002 21.3334Z" fill="#3671E9"/>
<path d="M18.6665 8.06666C18.5416 7.9425 18.3726 7.8728 18.1965 7.8728C18.0203 7.8728 17.8514 7.9425 17.7265 8.06666L10.3265 15.4333L6.32646 11.4333C6.20446 11.3016 6.03513 11.2237 5.85572 11.2169C5.67631 11.21 5.50152 11.2747 5.36979 11.3967C5.23807 11.5187 5.16021 11.688 5.15333 11.8674C5.14645 12.0468 5.21113 12.2216 5.33313 12.3533L10.3265 17.3333L18.6665 9.01333C18.7289 8.95136 18.7785 8.87762 18.8124 8.79638C18.8462 8.71514 18.8637 8.62801 18.8637 8.54C18.8637 8.45199 18.8462 8.36485 18.8124 8.28361C18.7785 8.20237 18.7289 8.12864 18.6665 8.06666Z" fill="#3671E9"/>
</svg>
