<svg width="34" height="34" viewBox="0 0 34 34" fill="none" xmlns="http://www.w3.org/2000/svg">
<path d="M30.5704 9.71117C30.7687 9.05242 30.5704 8.56934 29.6326 8.56934H26.5258C25.7353 8.56934 25.3741 8.98725 25.1757 9.44625C25.1757 9.44625 23.5962 13.2982 21.3578 15.7958C20.6353 16.5225 20.3052 16.752 19.9114 16.752C19.7145 16.752 19.4283 16.5225 19.4283 15.8638V9.71117C19.4283 8.92067 19.2002 8.56934 18.5415 8.56934H13.6597C13.1667 8.56934 12.8692 8.93484 12.8692 9.28334C12.8692 10.0313 13.9883 10.2042 14.1031 12.3122V16.8852C14.1031 17.8868 13.9232 18.0695 13.5265 18.0695C12.4739 18.0695 9.91258 14.2034 8.3925 9.77775C8.09641 8.91784 7.7975 8.57075 7.00416 8.57075H3.89883C3.01058 8.57075 2.8335 8.98867 2.8335 9.44767C2.8335 10.2722 3.88608 14.3522 7.73658 19.7483C10.3036 23.433 13.9175 25.4305 17.2098 25.4305C19.1832 25.4305 19.4269 24.9871 19.4269 24.2221V21.4369C19.4269 20.5501 19.6153 20.3716 20.2401 20.3716C20.6991 20.3716 21.4896 20.6039 23.3327 22.379C25.4378 24.4842 25.7863 25.4291 26.9692 25.4291H30.0746C30.9614 25.4291 31.4048 24.9857 31.1498 24.1102C30.8707 23.2389 29.8649 21.971 28.5304 20.4708C27.8051 19.6151 26.7213 18.6943 26.3912 18.2338C25.9308 17.6403 26.064 17.3782 26.3912 16.8512C26.3927 16.8526 30.1766 11.5231 30.5704 9.71117Z" fill="black"/>
</svg>
