<svg width="1920" height="69" viewBox="0 0 1920 69" fill="none" xmlns="http://www.w3.org/2000/svg">
<path d="M192 54.0485C128 73.9838 63.9998 73.9838 0 54.0485V-1.67843e-06H1920V54.0485C1856 34.1131 1792 34.1131 1728 54.0485C1664 73.9838 1600 73.9838 1536 54.0485C1472 34.1131 1408 34.1131 1344 54.0485C1280 73.9838 1216 73.9838 1152 54.0485C1088 34.1131 1024 34.1131 960 54.0485C895.999 73.9838 831.999 73.9838 767.999 54.0485C703.999 34.1131 639.999 34.1131 576 54.0485C512 73.9838 448 73.9838 384 54.0485C320 34.1131 256 34.1131 192 54.0485Z" fill="white"/>
</svg>
