<svg width="1920" height="134" viewBox="0 0 1920 134" fill="none" xmlns="http://www.w3.org/2000/svg">
<path fill-rule="evenodd" clip-rule="evenodd" d="M0 133.468H1919.64V87.5337C1822.16 64.5107 1724.68 64.5107 1627.19 87.5337C1562.9 102.718 1500.99 77.4746 1438.33 51.9201C1405.98 38.728 1373.43 25.453 1340.23 17.6143C1242.75 -5.40886 1145.27 -5.40886 1047.78 17.6143C1018.62 24.5017 991.217 34.5926 964.002 44.6146C900.244 68.0934 837.513 91.1937 755.577 71.8428C658.093 48.8193 554.87 48.0244 457.386 71.0474C359.902 94.0704 262.418 94.0704 164.934 71.0474C109.956 58.063 54.9781 52.4016 0 54.0626V133.468Z" fill="#0D0D2B"/>
</svg>
